<?xml version="1.0" encoding="UTF-8" standalone="no"?>
<!-- Created with Inkscape (http://www.inkscape.org/) -->

<svg
   width="156.98863mm"
   height="156.98863mm"
   viewBox="0 0 156.98864 156.98863"
   version="1.1"
   id="svg1"
   inkscape:version="1.3 (0e150ed6c4, 2023-07-21)"
   sodipodi:docname="board.svg"
   xmlns:inkscape="http://www.inkscape.org/namespaces/inkscape"
   xmlns:sodipodi="http://sodipodi.sourceforge.net/DTD/sodipodi-0.dtd"
   xmlns="http://www.w3.org/2000/svg"
   xmlns:svg="http://www.w3.org/2000/svg">
  <sodipodi:namedview
     id="namedview1"
     pagecolor="#ffffff"
     bordercolor="#000000"
     borderopacity="0.25"
     inkscape:showpageshadow="2"
     inkscape:pageopacity="0.0"
     inkscape:pagecheckerboard="0"
     inkscape:deskcolor="#d1d1d1"
     inkscape:document-units="mm"
     inkscape:zoom="0.99528652"
     inkscape:cx="151.21274"
     inkscape:cy="276.30234"
     inkscape:window-width="1680"
     inkscape:window-height="1020"
     inkscape:window-x="0"
     inkscape:window-y="30"
     inkscape:window-maximized="1"
     inkscape:current-layer="layer1" />
  <defs
     id="defs1" />
  <g
     inkscape:label="Layer 1"
     inkscape:groupmode="layer"
     id="layer1"
     transform="translate(-19.975048,-51.463423)">
    <rect
       style="fill:#f92672;stroke:#f92672;stroke-width:1.45605;stroke-linecap:round;stroke-linejoin:round"
       id="rect1"
       width="47.021023"
       height="47.021023"
       x="20.703074"
       y="52.191448"
       ry="9.5661936" />
    <rect
       style="fill:#66d9ef;stroke:#66d9ef;stroke-width:1.45605;stroke-linecap:round;stroke-linejoin:round"
       id="rect2"
       width="47.021023"
       height="47.021023"
       x="74.958855"
       y="52.191448"
       ry="9.5661936" />
    <rect
       style="fill:#f92672;stroke:#f92672;stroke-width:1.45605;stroke-linecap:round;stroke-linejoin:round"
       id="rect3"
       width="47.021023"
       height="47.021023"
       x="129.21463"
       y="52.191448"
       ry="9.5661936" />
    <rect
       style="fill:#f92672;stroke:#f92672;stroke-width:1.45605;stroke-linecap:round;stroke-linejoin:round"
       id="rect4"
       width="47.021023"
       height="47.021023"
       x="20.703074"
       y="106.44723"
       ry="9.5661936" />
    <rect
       style="fill:#66d9ef;stroke:#66d9ef;stroke-width:1.45605;stroke-linecap:round;stroke-linejoin:round"
       id="rect5"
       width="47.021023"
       height="47.021023"
       x="74.958855"
       y="106.44723"
       ry="9.5661936" />
    <rect
       style="fill:#66d9ef;stroke:#66d9ef;stroke-width:1.45605;stroke-linecap:round;stroke-linejoin:round"
       id="rect6"
       width="47.021023"
       height="47.021023"
       x="129.21463"
       y="106.44723"
       ry="9.5661936" />
    <rect
       style="fill:#66d9ef;stroke:#66d9ef;stroke-width:1.45605;stroke-linecap:round;stroke-linejoin:round"
       id="rect7"
       width="47.021023"
       height="47.021023"
       x="20.703074"
       y="160.703"
       ry="9.5661936" />
    <rect
       style="fill:#f92672;stroke:#f92672;stroke-width:1.45605;stroke-linecap:round;stroke-linejoin:round"
       id="rect8"
       width="47.021023"
       height="47.021023"
       x="74.958855"
       y="160.703"
       ry="9.5661936" />
    <rect
       style="fill:#f92672;stroke:#f92672;stroke-width:1.45605;stroke-linecap:round;stroke-linejoin:round"
       id="rect9"
       width="47.021023"
       height="47.021023"
       x="129.21463"
       y="160.703"
       ry="9.5661936" />
    <g
       id="g17"
       class="fragment fade-in"
       transform="matrix(1.456051,0,0,1.456051,-9.1096398,-23.469942)">
      <path
         d="M 23.974476,66.571318 23.65493,61.870615 h 2.514329 l -0.311138,4.700703 z m 3.212288,0 -0.311138,-4.700703 h 2.531147 l -0.319546,4.700703 z m 13.833023,-0.336365 q 0,1.25296 -0.681139,2.035009 -0.68114,0.77364 -1.656599,1.16046 l 3.052514,4.91934 h -3.119787 l -2.522738,-4.456838 h -0.782049 v 4.456838 H 32.551795 V 62.69471 h 3.66638 q 2.379783,0 3.590698,0.86614 1.210914,0.86614 1.210914,2.674103 z m -2.842285,0 q 0,-0.840913 -0.496139,-1.219324 -0.487729,-0.38682 -1.454779,-0.38682 h -0.916595 v 3.372061 h 1.025914 q 0.899776,0 1.370688,-0.420456 0.470911,-0.420457 0.470911,-1.345461 z m 5.978897,0.336365 -0.319547,-4.700703 h 2.51433 l -0.311138,4.700703 z m 3.212287,0 -0.311137,-4.700703 h 2.531147 l -0.319547,4.700703 z"
         id="text9"
         style="font-weight:bold;font-size:16.3978px;font-family:'Fira Code';-inkscape-font-specification:'Fira Code, Bold';stroke-width:3.32014;stroke-linecap:round;stroke-linejoin:round"
         aria-label="&quot;R&quot;" />
      <path
         d="m 61.236756,66.571318 -0.319547,-4.700703 h 2.514329 l -0.311137,4.700703 z m 3.212287,0 -0.311138,-4.700703 h 2.531148 l -0.319547,4.700703 z m 13.992797,4.364338 q 0,1.009095 -0.38682,1.673416 -0.38682,0.664322 -1.05955,1.042732 -0.67273,0.378411 -1.538871,0.538185 -0.857731,0.159773 -1.807962,0.159773 H 69.780438 V 62.69471 h 3.691607 q 1.202506,0 2.211601,0.269092 1.017505,0.269092 1.631371,0.925004 0.622275,0.647503 0.622275,1.782735 0,1.042732 -0.639093,1.665008 -0.639094,0.622275 -1.496825,0.840913 0.622275,0.100909 1.227733,0.395229 0.613866,0.28591 1.009095,0.857731 0.403638,0.571821 0.403638,1.505234 z m -3.27956,-4.986613 q 0,-0.689549 -0.437275,-0.992277 -0.428865,-0.311138 -1.337051,-0.311138 h -0.849322 v 2.69933 h 0.933413 q 0.891368,0 1.286597,-0.327956 0.403638,-0.327956 0.403638,-1.067959 z m 0.437275,4.877294 q 0,-0.925004 -0.529775,-1.278187 -0.521366,-0.353184 -1.395916,-0.353184 h -1.135232 v 3.145014 h 1.017504 q 0.538185,0 1.000687,-0.109318 0.470911,-0.117728 0.756821,-0.445684 0.285911,-0.327956 0.285911,-0.958641 z m 5.819124,-4.255019 -0.319547,-4.700703 h 2.514329 l -0.311137,4.700703 z m 3.212287,0 -0.311138,-4.700703 h 2.531148 l -0.319547,4.700703 z"
         id="text10"
         style="font-weight:bold;font-size:16.3978px;font-family:'Fira Code';-inkscape-font-specification:'Fira Code, Bold';stroke-width:3.32014;stroke-linecap:round;stroke-linejoin:round"
         aria-label="&quot;B&quot;" />
      <path
         d="m 98.499028,66.571318 -0.319547,-4.700703 h 2.514329 l -0.31114,4.700703 z m 3.212282,0 -0.31113,-4.700703 h 2.53114 l -0.31954,4.700703 z m 13.83303,-0.336365 q 0,1.25296 -0.68114,2.035009 -0.68114,0.77364 -1.6566,1.16046 l 3.05251,4.91934 h -3.11978 l -2.52274,-4.456838 h -0.78205 v 4.456838 h -2.75819 V 62.69471 h 3.66638 q 2.37978,0 3.59069,0.86614 1.21092,0.86614 1.21092,2.674103 z m -2.84229,0 q 0,-0.840913 -0.49614,-1.219324 -0.48772,-0.38682 -1.45477,-0.38682 h -0.9166 v 3.372061 h 1.02591 q 0.89978,0 1.37069,-0.420456 0.47091,-0.420457 0.47091,-1.345461 z m 5.9789,0.336365 -0.31955,-4.700703 h 2.51433 l -0.31113,4.700703 z m 3.21229,0 -0.31114,-4.700703 h 2.53115 l -0.31955,4.700703 z"
         id="text11"
         style="font-weight:bold;font-size:16.3978px;font-family:'Fira Code';-inkscape-font-specification:'Fira Code, Bold';stroke-width:3.32014;stroke-linecap:round;stroke-linejoin:round"
         aria-label="&quot;R&quot;" />
      <path
         d="M 23.974476,103.83359 23.65493,99.132891 h 2.514329 l -0.311138,4.700699 z m 3.212288,0 -0.311138,-4.700699 h 2.531147 l -0.319546,4.700699 z m 13.833023,-0.33636 q 0,1.25296 -0.681139,2.03501 -0.68114,0.77364 -1.656599,1.16046 l 3.052514,4.91934 h -3.119787 l -2.522738,-4.45684 h -0.782049 v 4.45684 H 32.551795 V 99.956986 h 3.66638 q 2.379783,0 3.590698,0.866144 1.210914,0.86614 1.210914,2.6741 z m -2.842285,0 q 0,-0.84091 -0.496139,-1.21932 -0.487729,-0.38682 -1.454779,-0.38682 h -0.916595 v 3.37206 h 1.025914 q 0.899776,0 1.370688,-0.42046 0.470911,-0.42046 0.470911,-1.34546 z m 5.978897,0.33636 -0.319547,-4.700699 h 2.51433 l -0.311138,4.700699 z m 3.212287,0 -0.311137,-4.700699 h 2.531147 l -0.319547,4.700699 z"
         id="text12"
         style="font-weight:bold;font-size:16.3978px;font-family:'Fira Code';-inkscape-font-specification:'Fira Code, Bold';stroke-width:3.32014;stroke-linecap:round;stroke-linejoin:round"
         aria-label="&quot;R&quot;" />
      <path
         d="m 61.236756,103.83359 -0.319547,-4.700699 h 2.514329 l -0.311137,4.700699 z m 3.212287,0 -0.311138,-4.700699 h 2.531148 l -0.319547,4.700699 z m 13.992797,4.36434 q 0,1.0091 -0.38682,1.67342 -0.38682,0.66432 -1.05955,1.04273 -0.67273,0.37841 -1.538871,0.53818 -0.857731,0.15978 -1.807962,0.15978 H 69.780438 V 99.956986 h 3.691607 q 1.202506,0 2.211601,0.269094 1.017505,0.26909 1.631371,0.925 0.622275,0.6475 0.622275,1.78274 0,1.04273 -0.639093,1.665 -0.639094,0.62228 -1.496825,0.84092 0.622275,0.10091 1.227733,0.39523 0.613866,0.28591 1.009095,0.85773 0.403638,0.57182 0.403638,1.50523 z m -3.27956,-4.98661 q 0,-0.68955 -0.437275,-0.99228 -0.428865,-0.31114 -1.337051,-0.31114 h -0.849322 v 2.69933 h 0.933413 q 0.891368,0 1.286597,-0.32795 0.403638,-0.32796 0.403638,-1.06796 z m 0.437275,4.87729 q 0,-0.925 -0.529775,-1.27818 -0.521366,-0.35319 -1.395916,-0.35319 h -1.135232 v 3.14502 h 1.017504 q 0.538185,0 1.000687,-0.10932 0.470911,-0.11773 0.756821,-0.44569 0.285911,-0.32795 0.285911,-0.95864 z m 5.819124,-4.25502 -0.319547,-4.700699 h 2.514329 l -0.311137,4.700699 z m 3.212287,0 -0.311138,-4.700699 h 2.531148 l -0.319547,4.700699 z"
         id="text13"
         style="font-weight:bold;font-size:16.3978px;font-family:'Fira Code';-inkscape-font-specification:'Fira Code, Bold';stroke-width:3.32014;stroke-linecap:round;stroke-linejoin:round"
         aria-label="&quot;B&quot;" />
      <path
         d="m 98.499028,103.83359 -0.319547,-4.700699 h 2.514329 l -0.31114,4.700699 z m 3.212282,0 -0.31113,-4.700699 h 2.53114 l -0.31954,4.700699 z m 13.9928,4.36434 q 0,1.0091 -0.38682,1.67342 -0.38682,0.66432 -1.05955,1.04273 -0.67273,0.37841 -1.53887,0.53818 -0.85773,0.15978 -1.80796,0.15978 h -3.8682 V 99.956986 h 3.69161 q 1.2025,0 2.2116,0.269094 1.0175,0.26909 1.63137,0.925 0.62227,0.6475 0.62227,1.78274 0,1.04273 -0.63909,1.665 -0.63909,0.62228 -1.49682,0.84092 0.62227,0.10091 1.22773,0.39523 0.61386,0.28591 1.00909,0.85773 0.40364,0.57182 0.40364,1.50523 z m -3.27956,-4.98661 q 0,-0.68955 -0.43727,-0.99228 -0.42887,-0.31114 -1.33705,-0.31114 h -0.84933 v 2.69933 h 0.93342 q 0.89136,0 1.28659,-0.32795 0.40364,-0.32796 0.40364,-1.06796 z m 0.43728,4.87729 q 0,-0.925 -0.52978,-1.27818 -0.52136,-0.35319 -1.39591,-0.35319 h -1.13524 v 3.14502 h 1.01751 q 0.53818,0 1.00068,-0.10932 0.47092,-0.11773 0.75683,-0.44569 0.28591,-0.32795 0.28591,-0.95864 z m 5.81912,-4.25502 -0.31955,-4.700699 h 2.51433 l -0.31113,4.700699 z m 3.21229,0 -0.31114,-4.700699 h 2.53115 l -0.31955,4.700699 z"
         id="text14"
         style="font-weight:bold;font-size:16.3978px;font-family:'Fira Code';-inkscape-font-specification:'Fira Code, Bold';stroke-width:3.32014;stroke-linecap:round;stroke-linejoin:round"
         aria-label="&quot;B&quot;" />
      <path
         d="m 23.974476,141.09588 -0.319546,-4.7007 h 2.514329 l -0.311138,4.7007 z m 3.212288,0 -0.311138,-4.7007 h 2.531147 l -0.319546,4.7007 z m 13.992797,4.36434 q 0,1.0091 -0.38682,1.67342 -0.38682,0.66432 -1.059551,1.04273 -0.67273,0.37841 -1.53887,0.53819 -0.857731,0.15977 -1.807963,0.15977 h -3.868199 v -11.65505 h 3.691608 q 1.202505,0 2.2116,0.26909 1.017505,0.26909 1.631371,0.925 0.622276,0.64751 0.622276,1.78274 0,1.04273 -0.639094,1.66501 -0.639094,0.62227 -1.496825,0.84091 0.622276,0.10091 1.227733,0.39523 0.613866,0.28591 1.009095,0.85773 0.403639,0.57182 0.403639,1.50523 z M 37.9,140.47361 q 0,-0.68955 -0.437274,-0.99228 -0.428866,-0.31114 -1.337052,-0.31114 h -0.849322 v 2.69933 h 0.933414 q 0.891367,0 1.286596,-0.32795 Q 37.9,141.21361 37.9,140.47361 Z m 0.437275,4.87729 q 0,-0.925 -0.529775,-1.27818 -0.521366,-0.35319 -1.395915,-0.35319 h -1.135233 v 3.14502 h 1.017505 q 0.538184,0 1.000686,-0.10932 0.470911,-0.11773 0.756822,-0.44569 0.28591,-0.32795 0.28591,-0.95864 z m 5.819124,-4.25502 -0.319547,-4.7007 h 2.51433 l -0.311138,4.7007 z m 3.212287,0 -0.311137,-4.7007 h 2.531147 l -0.319547,4.7007 z"
         id="text15"
         style="font-weight:bold;font-size:16.3978px;font-family:'Fira Code';-inkscape-font-specification:'Fira Code, Bold';stroke-width:3.32014;stroke-linecap:round;stroke-linejoin:round"
         aria-label="&quot;B&quot;" />
      <path
         d="m 61.236756,141.09588 -0.319547,-4.7007 h 2.514329 l -0.311137,4.7007 z m 3.212287,0 -0.311138,-4.7007 h 2.531148 l -0.319547,4.7007 z m 13.833024,-0.33636 q 0,1.25296 -0.68114,2.03501 -0.681139,0.77364 -1.656598,1.16046 l 3.052514,4.91934 h -3.119787 l -2.522739,-4.45684 h -0.782049 v 4.45684 h -2.758194 v -11.65505 h 3.66638 q 2.379784,0 3.590698,0.86614 1.210915,0.86614 1.210915,2.6741 z m -2.842286,0 q 0,-0.84091 -0.496138,-1.21932 -0.48773,-0.38682 -1.45478,-0.38682 h -0.916595 v 3.37206 h 1.025914 q 0.899777,0 1.370688,-0.42046 0.470911,-0.42046 0.470911,-1.34546 z m 5.978898,0.33636 -0.319547,-4.7007 h 2.514329 l -0.311137,4.7007 z m 3.212287,0 -0.311138,-4.7007 h 2.531148 l -0.319547,4.7007 z"
         id="text16"
         style="font-weight:bold;font-size:16.3978px;font-family:'Fira Code';-inkscape-font-specification:'Fira Code, Bold';stroke-width:3.32014;stroke-linecap:round;stroke-linejoin:round"
         aria-label="&quot;R&quot;" />
      <path
         d="m 98.499028,141.09588 -0.319547,-4.7007 h 2.514329 l -0.31114,4.7007 z m 3.212282,0 -0.31113,-4.7007 h 2.53114 l -0.31954,4.7007 z m 13.83303,-0.33636 q 0,1.25296 -0.68114,2.03501 -0.68114,0.77364 -1.6566,1.16046 l 3.05251,4.91934 h -3.11978 l -2.52274,-4.45684 h -0.78205 v 4.45684 h -2.75819 v -11.65505 h 3.66638 q 2.37978,0 3.59069,0.86614 1.21092,0.86614 1.21092,2.6741 z m -2.84229,0 q 0,-0.84091 -0.49614,-1.21932 -0.48772,-0.38682 -1.45477,-0.38682 h -0.9166 v 3.37206 h 1.02591 q 0.89978,0 1.37069,-0.42046 0.47091,-0.42046 0.47091,-1.34546 z m 5.9789,0.33636 -0.31955,-4.7007 h 2.51433 l -0.31113,4.7007 z m 3.21229,0 -0.31114,-4.7007 h 2.53115 l -0.31955,4.7007 z"
         id="text17"
         style="font-weight:bold;font-size:16.3978px;font-family:'Fira Code';-inkscape-font-specification:'Fira Code, Bold';stroke-width:3.32014;stroke-linecap:round;stroke-linejoin:round"
         aria-label="&quot;R&quot;" />
    </g>
  </g>
</svg>
